# xmcd
#
# Track frame offsets: 
#        150
#        44285
#        93077
#        142640
#        205455
#        244417
#
# Disc length: 3943 seconds
#
# Revision: 7
# Processed by: cddbd v1.5.2PL0 Copyright (c) Steve Scherf et al.
# Submitted via: ExactAudioCopy v0.95b4
#
DISCID=4a0f6506
DTITLE=Sergei Rachmaninoff - Rachmaninoff plays Rachmaninoff - Concert
DTITLE=os 2 and 3
DYEAR=1994
DGENRE=Classical
TTITLE0=Concerto no.2 in C minor op.18 - I Moderato - Allegro
TTITLE1=Concerto no.2 in C minor op.18 - II Adagio sostenuto
TTITLE2=Concerto no.2 in C minor op.18 - III Allegro scherzando
TTITLE3=Concerto no.3 in D minor op.30 - I Allegro ma non tanto
TTITLE4=Concerto no.3 in D minor op.30 - II Intermezzo - Adagio
TTITLE5=Concerto no.3 in D minor op.30 - III Finale - Alla breve
EXTD=
EXTT0=
EXTT1=
EXTT2=
EXTT3=
EXTT4=
EXTT5=
PLAYORDER=
